<?xml version="1.0" encoding="UTF-8" standalone="no"?> <svg xmlns="http://www.w3.org/2000/svg" viewBox="0 0 48 48"><g id="Oven"><path d="M39,4H9A5.006,5.006,0,0,0,4,9V39a5.006,5.006,0,0,0,5,5H39a5.006,5.006,0,0,0,5-5V9A5.006,5.006,0,0,0,39,4ZM6,9A3,3,0,0,1,9,6H39a3,3,0,0,1,3,3v5H6Zm8,7H34v2H14ZM42,39a3,3,0,0,1-3,3H9a3,3,0,0,1-3-3V16h6v2a2,2,0,0,0,2,2H34a2,2,0,0,0,2-2V16h6Z"/><path d="M34,7a3,3,0,1,0,3,3A3,3,0,0,0,34,7Zm0,4a1,1,0,1,1,1-1A1,1,0,0,1,34,11Z"/><path d="M24,7a3,3,0,1,0,3,3A3,3,0,0,0,24,7Zm0,4a1,1,0,1,1,1-1A1,1,0,0,1,24,11Z"/><path d="M14,7a3,3,0,1,0,3,3A3,3,0,0,0,14,7Zm0,4a1,1,0,1,1,1-1A1,1,0,0,1,14,11Z"/><path d="M8,25V37a3,3,0,0,0,3,3H37a3,3,0,0,0,3-3V25a3,3,0,0,0-3-3H11A3,3,0,0,0,8,25Zm30,0V37a1,1,0,0,1-1,1H11a1,1,0,0,1-1-1V25a1,1,0,0,1,1-1H37A1,1,0,0,1,38,25Z"/><path d="M25.293,34.707a1,1,0,0,0,1.414-1.414l-6-6a1,1,0,0,0-1.414,1.414Z"/><path d="M29.293,32.707a1,1,0,0,0,1.414-1.414l-3-3a1,1,0,0,0-1.414,1.414Z"/><path d="M18.293,33.707a1,1,0,0,0,1.414-1.414l-2-2a1,1,0,0,0-1.414,1.414Z"/></g></svg>