<?xml version="1.0" encoding="UTF-8" standalone="no"?><!DOCTYPE svg PUBLIC "-//W3C//DTD SVG 1.1//EN" "http://www.w3.org/Graphics/SVG/1.1/DTD/svg11.dtd"><svg width="100%" height="100%" viewBox="0 0 24 24" version="1.1" xmlns="http://www.w3.org/2000/svg" xmlns:xlink="http://www.w3.org/1999/xlink" xml:space="preserve" xmlns:serif="http://www.serif.com/" style="fill-rule:evenodd;clip-rule:evenodd;stroke-linejoin:round;stroke-miterlimit:2;"><g id="Icon"><path d="M9.75,3c0,1.242 1.008,2.25 2.25,2.25c1.242,0 2.25,-1.008 2.25,-2.25c-0,-0.22 0.097,-0.43 0.265,-0.572c0.168,-0.143 0.391,-0.204 0.608,-0.168l2.214,0.369c0.616,0.103 1.207,0.326 1.737,0.658l3.323,2.077c0.303,0.189 0.431,0.565 0.305,0.899l-1.5,4c-0.071,0.189 -0.215,0.342 -0.399,0.423c-0.185,0.082 -0.394,0.085 -0.582,0.01c0,0 -1.471,-0.588 -1.471,-0.588l-0,9.892c0,0.464 -0.184,0.909 -0.513,1.237c-0.328,0.329 -0.773,0.513 -1.237,0.513l-10,-0c-0.464,0 -0.909,-0.184 -1.237,-0.513c-0.329,-0.328 -0.513,-0.773 -0.513,-1.237l0,-9.892l-1.471,0.588c-0.188,0.075 -0.397,0.072 -0.582,-0.01c-0.184,-0.081 -0.328,-0.234 -0.399,-0.423l-1.5,-4c-0.126,-0.334 0.002,-0.71 0.305,-0.899l3.476,-2.173c0.429,-0.268 0.907,-0.449 1.407,-0.532l2.391,-0.399c0.217,-0.036 0.44,0.025 0.608,0.168c0.168,0.142 0.265,0.352 0.265,0.572Zm-1.399,0.868l-1.618,0.27c-0.305,0.051 -0.597,0.162 -0.859,0.325l-2.956,1.848l1.015,2.708l1.788,-0.715c0.232,-0.093 0.493,-0.065 0.699,0.075c0.207,0.139 0.33,0.372 0.33,0.621l-0,11c-0,0.066 0.026,0.13 0.073,0.177c0.047,0.047 0.111,0.073 0.177,0.073l10,0c0.066,0 0.13,-0.026 0.177,-0.073c0.047,-0.047 0.073,-0.111 0.073,-0.177l0,-11c-0,-0.249 0.123,-0.482 0.33,-0.621c0.206,-0.14 0.467,-0.168 0.699,-0.075l1.788,0.715l1.015,-2.708l-2.803,-1.752c-0.363,-0.227 -0.767,-0.38 -1.189,-0.45c0,-0 -1.441,-0.241 -1.441,-0.241c-0.392,1.652 -1.878,2.882 -3.649,2.882c-1.771,0 -3.257,-1.23 -3.649,-2.882Z"/><path d="M14.78,2.283c0.396,-0.121 0.816,0.102 0.937,0.497c0.121,0.396 -0.102,0.816 -0.497,0.937c-2.146,0.657 -4.292,0.653 -6.438,0.001c-0.396,-0.121 -0.62,-0.54 -0.5,-0.936c0.121,-0.396 0.54,-0.62 0.936,-0.5c1.854,0.564 3.708,0.569 5.562,0.001Z"/></g></svg>